<svg width="81" height="22" viewBox="0 0 81 22" fill="none" xmlns="http://www.w3.org/2000/svg">
<path d="M2.53214 20.4964L10.9567 3.60397C10.9567 3.60397 3.58519 6.87348 2.00558 10.6879C0.425966 14.5023 0.926841 18.0111 2.0056 20.4964" stroke="#499A18" stroke-linecap="round" stroke-linejoin="round"/>
<path d="M2.00003 20.5414C2.00003 20.5414 27.806 -8.38422 19.3814 4.1489C10.9568 16.682 20.2394 6.50437 15.5493 13.7729C10.8592 21.0414 2.00003 20.5414 2.00003 20.5414Z" stroke="#499A18" stroke-linejoin="round"/>
<path d="M26.9264 8.84135C28.2811 8.84135 29.2837 9.06535 29.9344 9.51335C30.5957 9.95068 30.9264 10.7294 30.9264 11.8494C30.9264 12.9694 30.6011 13.86 29.9504 14.5214C29.2997 15.172 28.2491 15.4974 26.7984 15.4974H25.4544L25.4064 18.9694L26.6544 19.0814C26.6544 19.38 26.5637 19.7 26.3824 20.0414H22.7824L22.7344 19.4974C23.1824 19.3267 23.6411 19.1987 24.1104 19.1134C24.0464 14.9534 23.9931 11.86 23.9504 9.83335C23.6624 9.78002 23.1931 9.65202 22.5424 9.44935L22.6224 8.84135H26.9264ZM26.6384 14.4574C27.5557 14.4467 28.2544 14.2174 28.7344 13.7694C29.2144 13.3107 29.4544 12.708 29.4544 11.9614C29.4544 11.2147 29.2197 10.6974 28.7504 10.4094C28.2811 10.1107 27.5291 9.96135 26.4944 9.96135C26.3024 9.96135 25.9771 9.96668 25.5184 9.97735C25.5184 9.98802 25.5024 11.4867 25.4704 14.4734L26.6384 14.4574ZM33.9855 8.15335C34.3162 8.15335 34.5508 8.16402 34.6895 8.18535C34.6895 8.55868 34.6202 8.98535 34.4815 9.46535C34.3855 15.7587 34.3375 18.9214 34.3375 18.9534L35.6815 19.0814C35.6815 19.38 35.5908 19.7 35.4095 20.0414H31.7295L31.6815 19.4814C32.1722 19.3107 32.6522 19.1827 33.1215 19.0974L32.9615 9.41735C32.3748 9.38535 31.9055 9.32135 31.5535 9.22535L31.6175 8.39335C32.1615 8.23335 32.9508 8.15335 33.9855 8.15335ZM42.9763 14.8094L42.8963 18.9374C43.3549 18.9694 43.8136 19.044 44.2723 19.1614L44.2403 19.7214C44.0696 19.8067 43.7603 19.9027 43.3123 20.0094C42.8749 20.1054 42.4429 20.1534 42.0163 20.1534C41.8243 19.7694 41.7176 19.4014 41.6963 19.0494C40.4803 19.8494 39.6269 20.2494 39.1363 20.2494C38.3789 20.2494 37.7709 20.0467 37.3123 19.6414C36.8536 19.236 36.6243 18.6707 36.6243 17.9454C36.6243 16.2707 37.6483 15.4067 39.6963 15.3534C40.8909 15.3214 41.4936 15.3054 41.5043 15.3054L41.4883 14.7614C41.4669 14.0254 41.3283 13.4974 41.0723 13.1774C40.8163 12.8467 40.3576 12.6814 39.6963 12.6814C39.4189 12.6814 39.1203 12.7454 38.8003 12.8734L38.4163 14.4734C38.3629 14.484 38.2723 14.4894 38.1443 14.4894L37.4883 14.4414C37.3176 13.9827 37.2269 13.348 37.2163 12.5374C37.4189 12.4307 37.8829 12.2707 38.6083 12.0574C39.3336 11.8334 39.7976 11.7214 40.0003 11.7214C41.0883 11.7214 41.8563 11.9614 42.3043 12.4414C42.7523 12.9214 42.9763 13.7107 42.9763 14.8094ZM39.4883 19.1614C39.7976 19.1614 40.5123 18.8147 41.6323 18.1214L41.5523 16.1214C40.8269 16.1854 40.2189 16.244 39.7283 16.2974C39.2376 16.3507 38.8429 16.4947 38.5443 16.7294C38.2456 16.9534 38.0963 17.3107 38.0963 17.8014C38.0963 18.708 38.5603 19.1614 39.4883 19.1614ZM50.1613 11.7214C51.1853 11.7214 51.9266 11.9774 52.3853 12.4894C52.8439 12.9907 53.0733 13.7587 53.0733 14.7934C53.0733 15.092 53.0306 16.4787 52.9453 18.9534L54.2893 19.0814C54.2893 19.38 54.1986 19.7 54.0173 20.0414H50.3373L50.2893 19.4814C50.7799 19.3107 51.2599 19.1827 51.7293 19.0974C51.6653 16.3027 51.6066 14.7507 51.5533 14.4414C51.5106 14.1214 51.4359 13.844 51.3293 13.6094C51.2226 13.3747 51.0626 13.2094 50.8493 13.1134C50.6359 13.0174 50.3533 12.9694 50.0013 12.9694C49.2973 12.9694 48.6146 13.14 47.9533 13.4814C47.8893 15.9134 47.8466 17.7374 47.8253 18.9534L49.1693 19.0814C49.1693 19.38 49.0786 19.7 48.8973 20.0414H45.2173L45.1693 19.4814C45.6599 19.3107 46.1399 19.1827 46.6093 19.0974C46.5453 16.388 46.4919 14.3827 46.4493 13.0814C45.8626 13.0494 45.3933 12.9854 45.0413 12.8894L45.1053 12.0574C45.6813 11.8974 46.5186 11.8174 47.6173 11.8174C47.7453 12.0094 47.8413 12.2867 47.9053 12.6494C48.3639 12.404 48.8226 12.1907 49.2813 12.0094C49.7506 11.8174 50.0439 11.7214 50.1613 11.7214ZM56.2126 19.0494L56.0846 13.0174H54.8526L54.8046 12.4574C54.9113 12.3827 55.2206 12.244 55.7326 12.0414L57.0446 9.99335C57.258 10.0147 57.4233 10.068 57.5406 10.1534L57.5246 11.9134C58.3246 11.9134 58.9806 11.9667 59.4926 12.0734C59.4926 12.3614 59.402 12.676 59.2206 13.0174H57.4926C57.4713 14.2974 57.45 16.2387 57.4286 18.8414C58.026 18.8734 58.6233 18.98 59.2206 19.1614L59.2046 19.7214C59.0553 19.8174 58.6713 19.9294 58.0526 20.0574C57.4446 20.1854 56.9433 20.2494 56.5486 20.2494C56.4953 20.164 56.426 19.9827 56.3406 19.7054C56.2553 19.4174 56.2126 19.1987 56.2126 19.0494ZM61.9191 19.0174C62.2925 19.1774 62.7458 19.2574 63.2791 19.2574C63.8231 19.2574 64.2498 19.156 64.5591 18.9534C64.8685 18.7507 65.0231 18.4734 65.0231 18.1214C65.0231 17.7694 64.8791 17.476 64.5911 17.2414C64.3031 17.0067 63.9511 16.7987 63.5351 16.6174C63.1191 16.436 62.7031 16.244 62.2871 16.0414C61.8711 15.8387 61.5191 15.572 61.2311 15.2414C60.9431 14.9107 60.7991 14.5267 60.7991 14.0894C60.7991 13.3534 61.0445 12.7774 61.5351 12.3614C62.0258 11.9347 62.7031 11.7214 63.5671 11.7214C64.4418 11.7214 65.2631 11.9187 66.0311 12.3134C66.0418 12.42 66.0471 12.708 66.0471 13.1774C66.0471 13.636 65.9991 14.0307 65.9031 14.3614C65.6471 14.4467 65.3431 14.4894 64.9911 14.4894L64.4631 12.8574C64.2285 12.74 63.9085 12.6814 63.5031 12.6814C63.1085 12.6814 62.7938 12.788 62.5591 13.0014C62.3245 13.204 62.2071 13.4654 62.2071 13.7854C62.2071 14.0947 62.3511 14.3667 62.6391 14.6014C62.9378 14.836 63.2951 15.0494 63.7111 15.2414C64.1271 15.4227 64.5431 15.62 64.9591 15.8334C65.3751 16.036 65.7271 16.308 66.0151 16.6494C66.3138 16.98 66.4631 17.364 66.4631 17.8014C66.4631 18.5694 66.1645 19.172 65.5671 19.6094C64.9805 20.036 64.2551 20.2494 63.3911 20.2494C62.9218 20.2494 62.4205 20.1747 61.8871 20.0254C61.3538 19.8654 60.9058 19.6627 60.5431 19.4174C60.5431 18.7027 60.6071 18.068 60.7351 17.5134C60.9805 17.4707 61.3111 17.4494 61.7271 17.4494L61.9191 19.0174Z" fill="black"/>
</svg>
